<svg width="64" height="60" viewBox="0 0 64 60" fill="none" xmlns="http://www.w3.org/2000/svg">
<path d="M6.94306 3.63425H57.362C59.0952 3.63425 60.5132 4.94825 60.5132 6.55425V53.2742L3.79187 53.2158V6.55425C3.79187 4.94825 5.2099 3.63425 6.94306 3.63425ZM19.5478 6.55425L13.2454 15.3142H16.3966L22.699 6.55425H19.5478ZM32.1525 6.55425H29.0014L22.699 15.3142H25.8502L32.1525 6.55425ZM41.6061 6.55425H38.4549L32.1525 15.3142H35.3037L41.6061 6.55425ZM51.0597 6.55425H47.9085L41.6061 15.3142H44.7573L51.0597 6.55425ZM54.2108 47.4342V18.2342H10.0942V47.4342H54.2108ZM25.8502 21.1542L44.7573 32.8342L25.8502 44.5142V21.1542Z" fill="#1089C0"/>
</svg>
