<svg width="64" height="60" viewBox="0 0 64 60" fill="none" xmlns="http://www.w3.org/2000/svg">
<path d="M45.939 26.2642C48.1144 26.2642 49.878 24.6301 49.878 22.6142C49.878 20.5984 48.1144 18.9642 45.939 18.9642C43.7635 18.9642 42 20.5984 42 22.6142C42 24.6301 43.7635 26.2642 45.939 26.2642Z" fill="#1089C0"/>
<path d="M55.7864 9.83922H32.6252C31.181 8.15647 29.3535 6.79006 27.2734 5.8376C25.1932 4.88515 22.9117 4.37017 20.5919 4.32946C18.2721 4.28875 15.9712 4.72331 13.8536 5.60209C11.736 6.48087 9.85401 7.78218 8.34207 9.41305C6.83013 11.0439 5.72556 12.9641 5.10728 15.0364C4.48901 17.1087 4.37228 19.2819 4.76545 21.4008C5.15862 23.5197 6.05197 25.5321 7.38168 27.294C8.71139 29.0559 10.4446 30.5239 12.4576 31.5932V49.9892C12.4576 50.9573 12.8726 51.8857 13.6113 52.5702C14.35 53.2547 15.3519 53.6392 16.3966 53.6392H55.7864C56.8311 53.6392 57.833 53.2547 58.5717 52.5702C59.3104 51.8857 59.7254 50.9573 59.7254 49.9892V13.4892C59.7254 12.5212 59.3104 11.5928 58.5717 10.9083C57.833 10.2238 56.8311 9.83922 55.7864 9.83922V9.83922ZM8.51861 18.9642C8.52321 16.5573 9.38349 14.2189 10.9664 12.3106C12.5493 10.4022 14.7667 9.03036 17.2755 8.40709C19.7844 7.78382 22.445 7.94389 24.8458 8.86255C27.2466 9.7812 29.2539 11.4073 30.5572 13.4892H16.3966V17.1392H31.9753C32.084 17.7425 32.1432 18.3526 32.1525 18.9642C32.1432 19.5758 32.084 20.1859 31.9753 20.7892H20.3356V24.4392H30.5572C29.2539 26.5212 27.2466 28.1472 24.8458 29.0659C22.445 29.9845 19.7844 30.1446 17.2755 29.5213C14.7667 28.8981 12.5493 27.5262 10.9664 25.6179C9.38349 23.7095 8.52321 21.3711 8.51861 18.9642V18.9642ZM55.7864 49.9892H16.3966L26.244 40.8642L29.3755 43.766C30.1135 44.4458 31.1119 44.8274 32.1525 44.8274C33.1931 44.8274 34.1915 44.4458 34.9295 43.766L45.939 33.5642L55.7864 42.6892V49.9892ZM55.7864 37.5245L48.7159 30.9727C47.9779 30.2929 46.9796 29.9113 45.939 29.9113C44.8983 29.9113 43.9 30.2929 43.162 30.9727L32.1525 41.1745L29.021 38.2727C28.283 37.5929 27.2847 37.2113 26.244 37.2113C25.2034 37.2113 24.2051 37.5929 23.4671 38.2727L16.3966 44.8245V33.0897C17.6837 33.3967 19.0066 33.5561 20.3356 33.5642C24.5143 33.5642 28.5219 32.026 31.4767 29.288C34.4315 26.5499 36.0915 22.8364 36.0915 18.9642C36.0926 17.0865 35.6979 15.2267 34.9295 13.4892H55.7864V37.5245Z" fill="#1089C0"/>
</svg>
