<svg width="64" height="60" viewBox="0 0 64 60" fill="none" xmlns="http://www.w3.org/2000/svg">
<g clip-path="url(#clip0_1579_16964)">
<path d="M56.7711 8.37925C56.094 7.9733 55.3195 7.72771 54.516 7.66407C53.7124 7.60042 52.9042 7.72067 52.1625 8.01425L27.859 16.8837C27.2836 17.1007 26.6683 17.2123 26.0471 17.2122H10.4881C9.18223 17.2122 7.92986 17.6929 7.00648 18.5486C6.0831 19.4042 5.56435 20.5647 5.56435 21.7747V22.1397H0.640625V33.0897H5.56435V33.5642C5.59521 34.7552 6.12755 35.8878 7.0476 36.7199C7.96766 37.552 9.20245 38.0176 10.4881 38.0173L16.3966 49.6242C16.7966 50.4059 17.4265 51.0671 18.2139 51.5319C19.0012 51.9968 19.9141 52.2465 20.8476 52.2522H23.3292C24.6282 52.2426 25.8705 51.7577 26.7853 50.9031C27.7002 50.0485 28.2135 48.8935 28.2135 47.6897V38.4552L52.1625 47.3248C52.7516 47.542 53.3798 47.6534 54.0138 47.6533C54.9974 47.6385 55.9553 47.3596 56.7711 46.8503C57.419 46.4449 57.9534 45.9024 58.3301 45.2677C58.7069 44.633 58.9151 43.9243 58.9376 43.2003V12.1387C58.934 11.396 58.7347 10.6654 58.3572 10.0102C57.9796 9.35502 57.4352 8.79516 56.7711 8.37925ZM23.2898 21.7747V33.5642H10.4881V21.7747H23.2898ZM23.2898 47.6897H20.8082L15.9633 38.0173H23.2898V47.6897ZM29.6709 34.1117C29.2032 33.8903 28.7156 33.7071 28.2135 33.5642V21.5192C28.7108 21.4242 29.1984 21.2899 29.6709 21.1177L54.0138 12.1387V43.0908L29.6709 34.1117ZM59.0557 23.0522V32.1772C60.3616 32.1772 61.614 31.6966 62.5373 30.8409C63.4607 29.9853 63.9795 28.8248 63.9795 27.6147C63.9795 26.4047 63.4607 25.2442 62.5373 24.3886C61.614 23.5329 60.3616 23.0522 59.0557 23.0522Z" fill="#1089C0"/>
</g>
<defs>
<clipPath id="clip0_1579_16964">
<rect width="63.0237" height="58.4" fill="white" transform="translate(0.640625 0.714233)"/>
</clipPath>
</defs>
</svg>
