<svg width="64" height="60" viewBox="0 0 64 60" fill="none" xmlns="http://www.w3.org/2000/svg">
<path d="M32.1525 49.3809H13.7705C13.0741 49.3809 12.4062 49.1245 11.9137 48.6682C11.4212 48.2119 11.1446 47.5929 11.1446 46.9476V12.8809C11.1446 12.2355 11.4212 11.6166 11.9137 11.1603C12.4062 10.7039 13.0741 10.4476 13.7705 10.4476H26.9005V17.7476C26.9005 19.6836 27.7305 21.5404 29.2079 22.9095C30.6853 24.2785 32.6891 25.0476 34.7785 25.0476H42.6564V27.4809C42.6564 28.1263 42.9331 28.7452 43.4256 29.2015C43.918 29.6579 44.586 29.9142 45.2824 29.9142C45.9789 29.9142 46.6468 29.6579 47.1393 29.2015C47.6317 28.7452 47.9084 28.1263 47.9084 27.4809V22.6142C47.9084 22.6142 47.9084 22.6142 47.9084 22.4682C47.881 22.2447 47.8282 22.0245 47.7508 21.8112V21.5922C47.6246 21.342 47.4562 21.1121 47.2519 20.9109L31.496 6.3109C31.2789 6.12163 31.0307 5.96557 30.7607 5.84857C30.6823 5.83825 30.6027 5.83825 30.5244 5.84857C30.2576 5.70681 29.963 5.61581 29.6578 5.5809H13.7705C11.6812 5.5809 9.67739 6.35001 8.19998 7.71902C6.72258 9.08804 5.89258 10.9448 5.89258 12.8809V46.9476C5.89258 48.8837 6.72258 50.7404 8.19998 52.1095C9.67739 53.4785 11.6812 54.2476 13.7705 54.2476H32.1525C32.8489 54.2476 33.5169 53.9912 34.0093 53.5349C34.5018 53.0785 34.7785 52.4596 34.7785 51.8142C34.7785 51.1689 34.5018 50.5499 34.0093 50.0936C33.5169 49.6373 32.8489 49.3809 32.1525 49.3809ZM32.1525 13.8786L38.9538 20.1809H34.7785C34.082 20.1809 33.4141 19.9245 32.9216 19.4682C32.4291 19.0119 32.1525 18.3929 32.1525 17.7476V13.8786ZM19.0225 20.1809C18.3261 20.1809 17.6581 20.4373 17.1657 20.8936C16.6732 21.3499 16.3965 21.9689 16.3965 22.6142C16.3965 23.2596 16.6732 23.8785 17.1657 24.3349C17.6581 24.7912 18.3261 25.0476 19.0225 25.0476H21.6485C22.345 25.0476 23.0129 24.7912 23.5054 24.3349C23.9978 23.8785 24.2745 23.2596 24.2745 22.6142C24.2745 21.9689 23.9978 21.3499 23.5054 20.8936C23.0129 20.4373 22.345 20.1809 21.6485 20.1809H19.0225ZM57.6508 50.0866L54.5784 47.2639C55.5604 45.6755 55.9535 43.8327 55.6974 42.0176C55.4412 40.2025 54.5501 38.5152 53.1604 37.2142C51.8816 35.987 50.2336 35.1452 48.431 34.7983C46.6285 34.4514 44.755 34.6156 43.0547 35.2695C41.3543 35.9234 39.9058 37.0366 38.898 38.4642C37.8902 39.8918 37.3697 41.5676 37.4044 43.2732C37.3954 44.741 37.8006 46.1854 38.5799 47.4633C39.3592 48.7412 40.4854 49.808 41.8469 50.5581C43.2085 51.3082 44.7579 51.7155 46.3417 51.7395C47.9255 51.7635 49.4885 51.4034 50.8758 50.6949L53.9219 53.5419C54.166 53.77 54.4565 53.951 54.7765 54.0745C55.0965 54.1981 55.4397 54.2617 55.7864 54.2617C56.133 54.2617 56.4763 54.1981 56.7963 54.0745C57.1163 53.951 57.4067 53.77 57.6508 53.5419C57.8969 53.3157 58.0923 53.0466 58.2256 52.75C58.3589 52.4535 58.4276 52.1355 58.4276 51.8142C58.4276 51.493 58.3589 51.175 58.2256 50.8784C58.0923 50.5819 57.8969 50.3128 57.6508 50.0866ZM49.3264 45.8282C48.5764 46.4818 47.5856 46.8457 46.556 46.8457C45.5264 46.8457 44.5356 46.4818 43.7856 45.8282C43.0627 45.1464 42.6573 44.229 42.6564 43.2732C42.651 42.7933 42.7506 42.3173 42.9492 41.874C43.1477 41.4306 43.4412 41.0292 43.8119 40.6939C44.512 40.0487 45.4509 39.6746 46.4378 39.6476C46.9688 39.6173 47.5007 39.6891 48.0002 39.8583C48.4998 40.0276 48.9562 40.2907 49.3409 40.6311C49.7255 40.9716 50.0301 41.382 50.2355 41.8367C50.4409 42.2913 50.5426 42.7804 50.5344 43.2732C50.5127 44.2395 50.0783 45.1584 49.3264 45.8282ZM34.7785 29.9142H19.0225C18.3261 29.9142 17.6581 30.1706 17.1657 30.6269C16.6732 31.0833 16.3965 31.7022 16.3965 32.3476C16.3965 32.9929 16.6732 33.6119 17.1657 34.0682C17.6581 34.5245 18.3261 34.7809 19.0225 34.7809H34.7785C35.4749 34.7809 36.1428 34.5245 36.6353 34.0682C37.1278 33.6119 37.4044 32.9929 37.4044 32.3476C37.4044 31.7022 37.1278 31.0833 36.6353 30.6269C36.1428 30.1706 35.4749 29.9142 34.7785 29.9142ZM29.5265 44.5142C30.2229 44.5142 30.8909 44.2579 31.3833 43.8015C31.8758 43.3452 32.1525 42.7263 32.1525 42.0809C32.1525 41.4355 31.8758 40.8166 31.3833 40.3603C30.8909 39.9039 30.2229 39.6476 29.5265 39.6476H19.0225C18.3261 39.6476 17.6581 39.9039 17.1657 40.3603C16.6732 40.8166 16.3965 41.4355 16.3965 42.0809C16.3965 42.7263 16.6732 43.3452 17.1657 43.8015C17.6581 44.2579 18.3261 44.5142 19.0225 44.5142H29.5265Z" fill="#1089C0"/>
</svg>
