<svg width="64" height="60" viewBox="0 0 64 60" fill="none" xmlns="http://www.w3.org/2000/svg">
<path d="M32.9403 30.4496C34.3414 29.3257 35.4653 27.9356 36.2356 26.3738C37.0058 24.8119 37.4045 23.1148 37.4045 21.3976C37.4045 18.1708 36.0211 15.0761 33.5588 12.7944C31.0964 10.5127 27.7568 9.2309 24.2745 9.2309C20.7922 9.2309 17.4526 10.5127 14.9902 12.7944C12.5279 15.0761 11.1446 18.1708 11.1446 21.3976C11.1445 23.1148 11.5432 24.8119 12.3135 26.3738C13.0837 27.9356 14.2076 29.3257 15.6087 30.4496C11.9327 31.992 8.81391 34.4829 6.62519 37.6244C4.43647 40.7658 3.27047 44.425 3.2666 48.1642C3.2666 48.8096 3.54327 49.4285 4.03574 49.8849C4.5282 50.3412 5.19613 50.5976 5.89259 50.5976C6.58905 50.5976 7.25698 50.3412 7.74944 49.8849C8.24191 49.4285 8.51858 48.8096 8.51858 48.1642C8.51858 44.2921 10.1786 40.5785 13.1334 37.8405C16.0882 35.1024 20.0958 33.5642 24.2745 33.5642C28.4532 33.5642 32.4608 35.1024 35.4156 37.8405C38.3704 40.5785 40.0304 44.2921 40.0304 48.1642C40.0304 48.8096 40.3071 49.4285 40.7996 49.8849C41.292 50.3412 41.96 50.5976 42.6564 50.5976C43.3529 50.5976 44.0208 50.3412 44.5133 49.8849C45.0058 49.4285 45.2824 48.8096 45.2824 48.1642C45.2786 44.425 44.1126 40.7658 41.9238 37.6244C39.7351 34.4829 36.6163 31.992 32.9403 30.4496ZM24.2745 28.6976C22.7164 28.6976 21.1933 28.2694 19.8977 27.4673C18.6022 26.6652 17.5925 25.5251 16.9962 24.1912C16.4 22.8573 16.2439 21.3895 16.5479 19.9734C16.8519 18.5573 17.6022 17.2566 18.7039 16.2357C19.8057 15.2148 21.2094 14.5195 22.7376 14.2378C24.2658 13.9562 25.8498 14.1007 27.2893 14.6532C28.7288 15.2058 29.9592 16.1414 30.8248 17.3419C31.6904 18.5424 32.1525 19.9538 32.1525 21.3976C32.1525 23.3336 31.3225 25.1904 29.8451 26.5594C28.3677 27.9285 26.3639 28.6976 24.2745 28.6976ZM49.8516 29.4762C51.5322 27.7226 52.63 25.5563 53.0128 23.238C53.3957 20.9197 53.0473 18.5483 52.0096 16.4092C50.9719 14.2701 49.2891 12.4546 47.1639 11.181C45.0386 9.90748 42.5614 9.23027 40.0304 9.2309C39.334 9.2309 38.6661 9.48726 38.1736 9.9436C37.6811 10.3999 37.4045 11.0189 37.4045 11.6642C37.4045 12.3096 37.6811 12.9285 38.1736 13.3849C38.6661 13.8412 39.334 14.0976 40.0304 14.0976C42.1198 14.0976 44.1236 14.8667 45.601 16.2357C47.0784 17.6047 47.9084 19.4615 47.9084 21.3976C47.9047 22.6756 47.5389 23.9304 46.8477 25.0364C46.1564 26.1424 45.1639 27.0609 43.9694 27.6999C43.5801 27.908 43.2549 28.2052 43.025 28.5631C42.7951 28.921 42.6682 29.3276 42.6564 29.7439C42.6454 30.157 42.7482 30.5659 42.9549 30.932C43.1617 31.2981 43.4656 31.6094 43.8381 31.8366L44.8623 32.4692L45.2036 32.6396C48.369 34.0307 51.0394 36.2311 52.9004 38.9816C54.7613 41.732 55.7353 44.918 55.7076 48.1642C55.7076 48.8096 55.9843 49.4285 56.4767 49.8849C56.9692 50.3412 57.6371 50.5976 58.3336 50.5976C59.03 50.5976 59.698 50.3412 60.1904 49.8849C60.6829 49.4285 60.9596 48.8096 60.9596 48.1642C60.981 44.4301 59.9717 40.7529 58.0276 37.482C56.0834 34.2112 53.269 31.4553 49.8516 29.4762Z" fill="#1089C0"/>
</svg>
