<svg width="64" height="60" viewBox="0 0 64 60" fill="none" xmlns="http://www.w3.org/2000/svg">
<g clip-path="url(#clip0_1604_16976)">
<path d="M59.7254 44.5142C59.7254 45.4823 59.3104 46.4107 58.5717 47.0952C57.833 47.7797 56.8311 48.1642 55.7864 48.1642H8.51859C7.47391 48.1642 6.47201 47.7797 5.73331 47.0952C4.99461 46.4107 4.57961 45.4823 4.57961 44.5142V22.6142C4.57961 21.6462 4.99461 20.7178 5.73331 20.0333C6.47201 19.3488 7.47391 18.9642 8.51859 18.9642H13.1351C16.2675 18.9626 19.2711 17.8086 21.4857 15.7559L24.7551 12.7337C25.4917 12.0509 26.4902 11.6664 27.5321 11.6642H36.765C37.8096 11.6644 38.8114 12.0491 39.5499 12.7337L42.8114 15.7559C43.9089 16.7732 45.212 17.5801 46.6462 18.1306C48.0803 18.6811 49.6175 18.9644 51.1699 18.9642H55.7864C56.8311 18.9642 57.833 19.3488 58.5717 20.0333C59.3104 20.7178 59.7254 21.6462 59.7254 22.6142V44.5142ZM8.51859 15.3142C6.42922 15.3142 4.42543 16.0833 2.94803 17.4523C1.47062 18.8214 0.640625 20.6781 0.640625 22.6142L0.640625 44.5142C0.640625 46.4503 1.47062 48.3071 2.94803 49.6761C4.42543 51.0451 6.42922 51.8142 8.51859 51.8142H55.7864C57.8758 51.8142 59.8795 51.0451 61.3569 49.6761C62.8344 48.3071 63.6644 46.4503 63.6644 44.5142V22.6142C63.6644 20.6781 62.8344 18.8214 61.3569 17.4523C59.8795 16.0833 57.8758 15.3142 55.7864 15.3142H51.1699C49.0807 15.3138 47.0772 14.5444 45.6002 13.1753L42.3387 10.1531C40.8616 8.78401 38.8582 8.01463 36.769 8.01422H27.536C25.4468 8.01463 23.4433 8.78401 21.9663 10.1531L18.7048 13.1753C17.2277 14.5444 15.2243 15.3138 13.1351 15.3142H8.51859Z" fill="#1089C0"/>
<path d="M32.1525 40.8642C29.5407 40.8642 27.036 39.9029 25.1892 38.1916C23.3425 36.4803 22.305 34.1593 22.305 31.7392C22.305 29.3191 23.3425 26.9982 25.1892 25.2869C27.036 23.5756 29.5407 22.6142 32.1525 22.6142C34.7642 22.6142 37.2689 23.5756 39.1157 25.2869C40.9624 26.9982 41.9999 29.3191 41.9999 31.7392C41.9999 34.1593 40.9624 36.4803 39.1157 38.1916C37.2689 39.9029 34.7642 40.8642 32.1525 40.8642ZM32.1525 44.5142C35.8088 44.5142 39.3155 43.1683 41.9009 40.7725C44.4864 38.3767 45.9389 35.1274 45.9389 31.7392C45.9389 28.3511 44.4864 25.1017 41.9009 22.7059C39.3155 20.3102 35.8088 18.9642 32.1525 18.9642C28.4961 18.9642 24.9894 20.3102 22.404 22.7059C19.8185 25.1017 18.366 28.3511 18.366 31.7392C18.366 35.1274 19.8185 38.3767 22.404 40.7725C24.9894 43.1683 28.4961 44.5142 32.1525 44.5142V44.5142ZM12.4575 24.4392C12.4575 24.9233 12.25 25.3874 11.8807 25.7297C11.5113 26.072 11.0104 26.2642 10.488 26.2642C9.9657 26.2642 9.46476 26.072 9.09541 25.7297C8.72605 25.3874 8.51855 24.9233 8.51855 24.4392C8.51855 23.9552 8.72605 23.491 9.09541 23.1488C9.46476 22.8065 9.9657 22.6142 10.488 22.6142C11.0104 22.6142 11.5113 22.8065 11.8807 23.1488C12.25 23.491 12.4575 23.9552 12.4575 24.4392V24.4392Z" fill="#1089C0"/>
</g>
<defs>
<clipPath id="clip0_1604_16976">
<rect width="63.0237" height="58.4" fill="white" transform="translate(0.640625 0.714233)"/>
</clipPath>
</defs>
</svg>
