<svg width="57" height="56" viewBox="0 0 57 56" fill="none" xmlns="http://www.w3.org/2000/svg">
<path fill-rule="evenodd" clip-rule="evenodd" d="M38.2014 19.21C38.2014 24.6926 33.8307 29.0888 28.3798 29.0888C22.9289 29.0888 18.5581 24.6926 18.5581 19.21C18.5581 13.7253 22.9289 9.33337 28.3798 9.33337C33.8307 9.33337 38.2014 13.7253 38.2014 19.21ZM28.3798 46.6667C20.3737 46.6667 13.5376 45.3975 13.5376 40.3204C13.5376 35.2413 20.3298 33.9258 28.3798 33.9258C36.3859 33.9258 43.222 35.1951 43.222 40.2742C43.222 45.3512 36.4297 46.6667 28.3798 46.6667ZM42.3986 19.3882C42.3986 22.1831 41.565 24.7868 40.1025 26.9512C39.952 27.174 40.0858 27.4745 40.3511 27.5207C40.7167 27.5837 41.0949 27.6195 41.4793 27.63C45.3131 27.7308 48.7542 25.2491 49.7048 21.5128C51.1129 15.9629 46.9783 10.9805 41.7133 10.9805C41.1408 10.9805 40.5934 11.0414 40.0607 11.1507C39.9876 11.1675 39.9103 11.2011 39.8685 11.2663C39.8183 11.3461 39.8559 11.4533 39.9061 11.5226C41.4877 13.7522 42.3986 16.4715 42.3986 19.3882ZM48.7479 31.5294C51.324 32.0358 53.0184 33.0697 53.7204 34.5722C54.3137 35.8057 54.3137 37.2368 53.7204 38.4682C52.6465 40.7987 49.1845 41.5468 47.8391 41.7401C47.5612 41.7822 47.3376 41.5405 47.3669 41.261C48.0542 34.8034 42.5866 31.7416 41.1722 31.0376C41.1116 31.0061 41.0991 30.9578 41.1053 30.9284C41.1095 30.9074 41.1346 30.8737 41.1805 30.8674C44.2413 30.8107 47.5319 31.231 48.7479 31.5294ZM15.5186 27.6298C15.903 27.6193 16.2791 27.5856 16.6468 27.5205C16.9122 27.4743 17.0459 27.1738 16.8954 26.951C15.433 24.7866 14.5993 22.1829 14.5993 19.388C14.5993 16.4713 15.5103 13.752 17.0918 11.5224C17.142 11.4531 17.1775 11.3459 17.1294 11.266C17.0877 11.203 17.0083 11.1673 16.9372 11.1505C16.4024 11.0412 15.855 10.9803 15.2825 10.9803C10.0176 10.9803 5.88289 15.9627 7.29315 21.5125C8.24377 25.2489 11.6848 27.7306 15.5186 27.6298ZM15.8916 30.9271C15.8978 30.9586 15.8853 31.0049 15.8268 31.0385C14.4103 31.7425 8.94263 34.8042 9.63 41.2598C9.65925 41.5414 9.43779 41.7809 9.15992 41.741C7.81443 41.5477 4.3525 40.7996 3.27861 38.4691C2.68317 37.2356 2.68317 35.8066 3.27861 34.5731C3.98061 33.0705 5.67292 32.0366 8.24899 31.5281C9.46704 31.2318 12.7556 30.8115 15.8184 30.8683C15.8644 30.8746 15.8874 30.9082 15.8916 30.9271Z" fill="#1089C0"/>
</svg>
