<svg width="56" height="56" viewBox="0 0 56 56" fill="none" xmlns="http://www.w3.org/2000/svg">
<path fill-rule="evenodd" clip-rule="evenodd" d="M20.7654 4.66663H35.162C41.4854 4.66663 46.5954 7.16329 46.6654 13.51V48.93C46.6654 49.3266 46.572 49.7233 46.3854 50.0733C46.082 50.6333 45.5687 51.0533 44.9387 51.24C44.332 51.4266 43.6554 51.3333 43.0954 51.0066L27.9754 43.4466L12.832 51.0066C12.4844 51.191 12.0854 51.31 11.6887 51.31C10.382 51.31 9.33203 50.2366 9.33203 48.93V13.51C9.33203 7.16329 14.4654 4.66663 20.7654 4.66663ZM19.1787 22.4466H36.7487C37.752 22.4466 38.5687 21.6276 38.5687 20.6033C38.5687 19.5766 37.752 18.76 36.7487 18.76H19.1787C18.1754 18.76 17.3587 19.5766 17.3587 20.6033C17.3587 21.6276 18.1754 22.4466 19.1787 22.4466Z" fill="#1089C0"/>
</svg>
