<svg width="57" height="56" viewBox="0 0 57 56" fill="none" xmlns="http://www.w3.org/2000/svg">
<path d="M28.5013 51.3333C41.3879 51.3333 51.8346 40.8866 51.8346 28C51.8346 15.1133 41.3879 4.66663 28.5013 4.66663C15.6147 4.66663 5.16797 15.1133 5.16797 28C5.16797 40.8866 15.6147 51.3333 28.5013 51.3333Z" stroke="#1089C0" stroke-width="4" stroke-linecap="round" stroke-linejoin="round"/>
<path d="M28.5 42C36.232 42 42.5 35.732 42.5 28C42.5 20.268 36.232 14 28.5 14C20.768 14 14.5 20.268 14.5 28C14.5 35.732 20.768 42 28.5 42Z" stroke="#1089C0" stroke-width="4" stroke-linecap="round" stroke-linejoin="round"/>
<path d="M28.4987 32.6667C31.076 32.6667 33.1654 30.5774 33.1654 28C33.1654 25.4227 31.076 23.3334 28.4987 23.3334C25.9214 23.3334 23.832 25.4227 23.832 28C23.832 30.5774 25.9214 32.6667 28.4987 32.6667Z" stroke="#1089C0" stroke-width="4" stroke-linecap="round" stroke-linejoin="round"/>
</svg>
